<?xml version="1.0" standalone="no"?>
<!DOCTYPE svg PUBLIC "-//W3C//DTD SVG 20010904//EN"
 "http://www.w3.org/TR/2001/REC-SVG-20010904/DTD/svg10.dtd">
<svg version="1.0" xmlns="http://www.w3.org/2000/svg"
 width="712.000000pt" height="896.000000pt" viewBox="0 0 712.000000 896.000000"
 preserveAspectRatio="xMidYMid meet">

<g transform="translate(0.000000,896.000000) scale(0.100000,-0.100000)"
fill="#000000" stroke="none">
<path d="M1569 8955 c-4 -4 -124 -9 -474 -20 -99 -3 -238 -8 -309 -10 -87 -4
-133 -1 -142 6 -11 9 -14 8 -14 -1 0 -7 -12 -10 -33 -9 -18 2 -38 0 -44 -4 -7
-4 -27 -7 -45 -6 -18 1 -48 -1 -66 -5 -18 -4 -32 -4 -31 1 1 4 1 16 0 26 -2
27 -21 20 -21 -8 0 -29 -3 -30 -35 -9 -18 12 -29 13 -38 6 -18 -15 -193 -27
-201 -13 -12 18 -36 12 -36 -9 0 -24 -9 -26 -25 -4 -8 12 -18 14 -36 9 -23 -8
-23 -8 11 -20 25 -9 34 -17 32 -30 -2 -10 2 -21 9 -26 10 -6 8 -12 -8 -26 -18
-16 -21 -30 -21 -96 -1 -46 -6 -84 -13 -93 -9 -11 -9 -17 1 -29 13 -15 22
-153 13 -192 -2 -11 -13 -23 -24 -26 -25 -7 -24 -27 2 -27 19 0 20 -5 16 -79
-2 -43 -1 -104 3 -134 4 -40 3 -54 -6 -50 -21 8 -27 -18 -8 -38 20 -22 31 -99
15 -99 -12 0 -15 -33 -4 -44 8 -8 5 -331 -3 -358 -3 -10 0 -18 7 -18 7 0 8 -5
3 -12 -5 -7 -9 -72 -9 -145 0 -122 -1 -132 -19 -137 -19 -5 -19 -6 -1 -26 10
-11 29 -20 42 -20 29 0 30 -18 0 -25 -26 -7 -24 8 -27 -268 -2 -171 -4 -198
-19 -207 -15 -8 -15 -10 1 -22 18 -14 26 -80 13 -110 -3 -9 -5 -49 -3 -87 2
-50 -1 -72 -9 -76 -16 -5 -17 -32 -2 -37 7 -2 10 -105 8 -328 -2 -179 -2 -356
-1 -394 1 -39 -4 -76 -9 -83 -7 -8 -8 -27 -3 -50 12 -57 12 -335 0 -355 -7
-11 -6 -24 1 -41 6 -13 9 -44 6 -68 -6 -44 -7 -77 -5 -134 0 -16 -2 -1109 -4
-2427 -4 -1659 -2 -2403 5 -2416 11 -22 44 -27 213 -38 62 -4 109 -2 135 6 21
6 51 16 67 21 16 4 36 5 44 0 11 -6 21 -3 31 11 10 11 34 22 59 25 27 4 42 11
42 20 0 10 6 12 21 8 14 -5 25 -1 33 11 9 12 15 14 20 6 10 -17 43 -15 50 4
11 28 7 33 -29 29 -19 -2 -35 1 -35 5 0 11 103 60 124 60 9 0 16 5 16 11 0 7
19 10 53 7 43 -2 54 0 53 12 -1 11 8 14 38 12 24 -3 42 1 47 9 4 8 11 10 16 6
4 -5 2 -12 -5 -16 -8 -4 -15 -29 -17 -55 -1 -26 -8 -53 -14 -59 -8 -8 -11 -8
-11 1 0 7 -6 12 -12 12 -7 -1 -1 -11 14 -23 27 -22 29 -38 16 -97 -2 -9 5 -15
17 -16 11 0 29 -5 41 -12 15 -8 24 -8 32 0 8 8 15 8 24 1 7 -6 64 -11 125 -12
98 -2 112 0 107 14 -4 10 0 15 10 15 9 0 19 -7 22 -15 9 -21 804 -22 804 0 0
8 9 19 20 25 16 8 19 17 13 37 l-6 27 28 -28 27 -27 -21 -15 c-11 -8 -21 -19
-21 -25 0 -15 277 -9 307 6 14 8 32 11 39 8 8 -3 14 0 14 6 0 6 -7 11 -16 11
-11 0 -14 6 -9 20 5 16 2 20 -14 20 -23 0 -28 15 -9 26 6 4 16 0 23 -9 7 -10
20 -17 29 -17 9 0 21 -11 26 -25 5 -14 17 -25 25 -25 9 0 27 -7 41 -16 20 -14
30 -15 49 -6 16 7 25 8 25 2 0 -7 71 -10 195 -10 114 1 195 5 195 11 0 5 7 9
15 9 8 0 15 -4 15 -10 0 -17 22 -11 41 12 16 17 19 18 19 5 0 -10 7 -17 15
-17 8 0 15 7 15 16 0 11 8 14 33 12 23 -2 32 -8 31 -20 -1 -10 4 -18 12 -18 8
0 14 8 14 18 0 11 14 24 38 35 33 15 38 15 48 2 7 -9 19 -13 28 -9 9 3 24 3
34 -1 25 -11 52 -13 52 -3 0 4 7 8 15 8 8 0 15 -4 15 -8 0 -10 42 -8 61 4 44
28 59 33 59 18 0 -17 34 -19 52 -1 23 21 75 47 95 47 10 0 23 -10 28 -22 6
-12 24 -26 40 -31 17 -5 38 -17 48 -25 16 -14 20 -13 44 9 20 19 25 20 20 6
-9 -25 20 -34 37 -12 9 13 15 15 20 6 4 -6 2 -18 -4 -26 -10 -12 -9 -15 4 -15
9 0 16 7 16 15 0 14 4 14 36 0 43 -18 145 -20 162 -3 9 9 15 9 24 0 18 -18 87
-15 94 3 4 10 20 15 45 15 21 0 39 4 39 8 0 5 15 16 33 25 22 10 26 16 14 16
-12 1 -17 7 -15 18 4 23 25 27 32 6 5 -16 19 -18 121 -19 91 0 115 2 115 13 0
8 5 11 10 8 6 -4 10 12 10 39 l0 46 -40 0 c-33 0 -40 -3 -40 -20 0 -11 -7 -20
-15 -20 -7 0 -18 -8 -24 -17 -8 -14 -12 -15 -25 -4 -21 18 -20 30 2 25 14 -4
17 3 19 36 2 23 9 48 18 56 8 9 15 20 15 25 0 12 37 49 49 49 5 0 12 -16 15
-35 7 -35 26 -58 26 -31 0 20 19 21 26 1 4 -9 19 -15 36 -15 28 0 29 -1 22
-35 -5 -27 -3 -36 10 -41 9 -3 16 -12 16 -20 0 -16 59 -49 68 -38 4 4 1 9 -5
11 -7 3 -13 11 -13 19 0 8 -6 11 -15 8 -8 -4 -15 -1 -15 5 0 6 7 11 15 11 18
0 19 12 4 27 -8 8 -8 13 0 17 6 4 11 0 11 -9 0 -13 6 -12 40 7 24 14 40 30 40
42 0 12 5 16 15 12 9 -3 19 3 25 14 6 11 17 20 25 20 7 0 30 20 51 46 29 35
43 44 63 42 18 -2 26 -9 26 -22 0 -24 51 -44 68 -27 6 6 19 11 28 11 10 0 21
9 24 20 3 11 17 23 31 26 13 3 21 10 18 15 -3 5 2 6 10 3 22 -8 21 -83 -1
-129 -13 -28 -22 -35 -45 -35 -16 0 -37 5 -47 12 -11 7 -26 8 -37 3 -18 -8
-18 -9 2 -12 12 -2 30 -13 40 -24 18 -20 17 -21 -12 -48 -17 -16 -39 -31 -51
-35 -11 -3 -31 -18 -44 -33 l-24 -26 34 7 c18 3 44 6 58 6 13 0 23 5 22 13 -1
6 0 21 1 32 1 16 4 14 13 -10 14 -35 37 -39 52 -10 7 14 18 19 35 17 14 -2 39
4 55 12 17 9 24 16 18 16 -19 0 -16 30 7 75 11 22 20 45 20 52 0 7 4 13 9 13
5 0 9 -15 8 -34 -1 -39 19 -70 40 -61 8 2 23 0 33 -5 16 -9 22 -5 35 24 15 32
15 36 -1 63 -10 15 -25 34 -33 41 -14 12 -14 15 2 26 17 13 17 14 0 20 -15 6
-15 8 -3 16 8 6 27 10 43 10 20 0 27 5 27 20 0 36 38 24 56 -17 l17 -38 7 30
7 30 13 -32 c11 -30 30 -45 30 -25 1 26 17 32 46 17 39 -20 61 -19 67 5 3 11
2 18 -3 15 -4 -2 -10 13 -14 34 -5 32 -11 41 -36 49 -16 6 -30 9 -30 6 0 -3
-7 2 -16 10 -8 9 -21 17 -27 17 -7 1 -23 3 -36 4 -13 1 -28 10 -33 19 -5 9
-15 16 -22 16 -24 0 -28 32 -7 54 15 14 23 17 33 9 7 -6 40 -14 73 -18 33 -4
82 -16 108 -26 26 -11 61 -19 77 -19 16 0 32 -5 35 -10 3 -6 15 -10 26 -10 11
0 41 -10 67 -22 26 -12 63 -22 82 -23 55 -4 120 -16 120 -24 0 -4 21 -13 48
-21 68 -20 112 -50 112 -78 0 -21 3 -23 33 -17 17 4 40 9 50 11 11 4 17 0 17
-10 0 -8 3 -21 6 -30 4 -11 -3 -19 -23 -27 -15 -6 -40 -18 -55 -26 -16 -8 -28
-11 -28 -8 0 3 -9 1 -20 -5 -21 -11 -27 -54 -9 -65 12 -8 42 -13 114 -19 38
-3 51 -9 54 -23 4 -22 21 -34 39 -28 6 2 12 0 12 -5 0 -6 5 -10 10 -10 6 0 10
14 10 31 0 28 3 31 24 25 20 -5 26 -1 35 24 5 17 17 30 25 30 19 0 20 -13 4
-40 -17 -26 -4 -36 28 -21 15 6 41 9 60 5 33 -6 33 -6 27 -50 l-6 -44 34 7
c19 3 36 9 39 13 3 4 15 10 27 14 15 5 20 12 16 23 -5 14 -1 15 27 9 19 -3 42
-13 51 -22 10 -9 23 -13 28 -9 8 4 11 1317 11 4431 l0 4424 -1130 0 c-998 0
-1130 -2 -1130 -15 0 -8 -4 -15 -10 -15 -5 0 -10 7 -10 15 0 13 -194 15 -1633
15 -899 0 -1636 -2 -1638 -5z m3446 -25 c-3 -5 -11 -10 -16 -10 -6 0 -7 5 -4
10 3 6 11 10 16 10 6 0 7 -4 4 -10z m-2619 -37 c-10 -10 -19 5 -10 18 6 11 8
11 12 0 2 -7 1 -15 -2 -18z m2569 17 c-3 -5 -11 -10 -16 -10 -6 0 -7 5 -4 10
3 6 11 10 16 10 6 0 7 -4 4 -10z m-908 -6 c-3 -3 -12 -4 -19 -1 -8 3 -5 6 6 6
11 1 17 -2 13 -5z m873 -24 c0 -13 -49 -18 -53 -6 -3 6 8 11 24 12 16 1 29 -2
29 -6z m-60 -20 c0 -5 -8 -10 -19 -10 -10 0 -35 -7 -54 -15 -43 -18 -50 -19
-45 -4 8 24 118 50 118 29z m570 0 c0 -5 -2 -10 -4 -10 -3 0 -8 5 -11 10 -3 6
-1 10 4 10 6 0 11 -4 11 -10z m-700 -34 c0 -3 -4 -8 -10 -11 -5 -3 -10 -1 -10
4 0 6 5 11 10 11 6 0 10 -2 10 -4z m186 -25 c-8 -12 -46 -21 -46 -11 0 5 10
11 23 13 12 2 23 5 25 6 2 0 1 -3 -2 -8z m1364 -31 c0 -5 -4 -10 -10 -10 -5 0
-10 5 -10 10 0 6 5 10 10 10 6 0 10 -4 10 -10z m-1433 -86 c-3 -3 -12 -4 -19
-1 -8 3 -5 6 6 6 11 1 17 -2 13 -5z m-1919 -61 c-10 -2 -26 -2 -35 0 -10 3 -2
5 17 5 19 0 27 -2 18 -5z m-2833 -133 c3 -5 -1 -10 -10 -10 -9 0 -13 5 -10 10
3 6 8 10 10 10 2 0 7 -4 10 -10z m-40 -440 c3 -5 1 -10 -4 -10 -6 0 -11 5 -11
10 0 6 2 10 4 10 3 0 8 -4 11 -10z m875 -220 c0 -5 -2 -10 -4 -10 -3 0 -8 5
-11 10 -3 6 -1 10 4 10 6 0 11 -4 11 -10z m5440 -64 c0 -2 -7 -6 -15 -10 -8
-3 -15 -1 -15 4 0 6 7 10 15 10 8 0 15 -2 15 -4z m-2893 -12 c-3 -3 -12 -4
-19 -1 -8 3 -5 6 6 6 11 1 17 -2 13 -5z m50 0 c-3 -3 -12 -4 -19 -1 -8 3 -5 6
6 6 11 1 17 -2 13 -5z m2793 -20 c0 -8 -4 -12 -10 -9 -5 3 -10 10 -10 16 0 5
5 9 10 9 6 0 10 -7 10 -16z m-3272 -368 c14 -5 29 -3 38 5 11 9 20 9 40 0 41
-18 19 -29 -53 -26 -76 2 -125 13 -118 25 6 9 58 7 93 -4z m185 -165 c-2 -7
13 -11 38 -11 53 0 85 -16 69 -35 -13 -16 -5 -35 14 -35 8 0 26 -7 42 -15 25
-13 29 -13 37 0 10 19 98 20 128 3 17 -10 23 -10 26 0 3 6 11 12 19 12 7 0 27
14 42 30 22 23 38 30 66 30 33 0 36 -2 36 -30 0 -28 2 -30 38 -30 27 0 45 7
58 21 12 14 25 18 41 14 13 -3 23 -1 23 4 0 11 38 2 46 -10 3 -5 -6 -13 -20
-19 -19 -7 -26 -17 -26 -35 0 -23 4 -25 40 -25 33 0 40 -3 40 -20 0 -14 9 -21
35 -26 19 -3 39 -12 43 -19 7 -14 180 -24 200 -11 10 6 42 -34 42 -54 0 -5 10
-10 23 -10 31 0 101 -26 105 -39 2 -6 10 -11 17 -11 7 0 15 -6 18 -14 3 -8 18
-16 34 -18 27 -3 31 -11 22 -47 -2 -8 6 -17 21 -21 16 -4 24 -12 22 -23 -2
-12 4 -17 23 -17 14 0 27 1 28 3 2 1 11 -4 20 -12 11 -8 17 -28 17 -52 0 -32
3 -39 20 -39 17 0 20 7 20 40 0 31 4 40 18 40 13 0 14 -2 4 -9 -8 -5 -12 -21
-10 -37 3 -26 7 -29 41 -32 36 -3 37 -4 37 -42 0 -21 6 -41 13 -44 6 -3 2 -3
-9 -1 -15 4 -24 0 -28 -11 -9 -24 12 -36 58 -30 43 5 82 -18 57 -34 -9 -5 -5
-9 13 -14 21 -5 26 -12 26 -37 0 -23 4 -30 18 -28 55 5 62 1 62 -41 0 -38 2
-40 30 -40 l30 0 0 -80 c0 -73 2 -83 25 -106 20 -20 25 -35 25 -79 l0 -54 38
-4 c24 -3 21 -4 -10 -2 -45 2 -60 -6 -38 -20 6 -3 10 -15 10 -26 0 -16 7 -19
43 -20 23 -1 34 -3 25 -6 -24 -6 -26 -83 -3 -83 8 0 15 -7 15 -15 0 -11 -11
-15 -40 -15 -29 0 -40 -4 -40 -15 0 -11 -7 -13 -32 -7 -18 4 -72 7 -121 7 -48
0 -87 3 -87 8 0 4 -17 7 -37 7 -39 0 -73 -23 -73 -50 0 -9 -8 -24 -17 -32 -22
-19 -82 -48 -99 -48 -7 0 -14 -4 -16 -10 -1 -5 -69 -11 -151 -13 -81 -3 -153
-9 -160 -15 -13 -11 -69 -23 -107 -23 -14 0 -32 -5 -40 -12 -32 -26 -53 -87
-30 -87 6 0 10 -7 10 -15 0 -11 11 -15 40 -15 22 0 40 -4 40 -8 0 -4 25 -16
55 -27 48 -16 62 -17 106 -7 62 15 275 16 284 2 3 -5 24 -10 45 -10 21 0 42
-4 45 -10 3 -5 24 -10 45 -10 52 0 140 -19 140 -31 0 -5 8 -9 18 -9 10 0 22
-4 28 -9 5 -6 26 -12 46 -14 20 -2 43 -8 50 -14 7 -6 31 -17 53 -24 22 -8 44
-20 48 -26 4 -7 13 -13 19 -13 23 0 158 -124 158 -146 0 -9 11 -14 30 -14 25
0 30 -4 30 -23 0 -13 6 -29 12 -35 10 -10 10 -14 0 -21 -10 -6 -4 -17 22 -43
36 -36 43 -65 37 -149 -1 -14 5 -32 14 -39 17 -14 21 -90 5 -90 -18 0 -11 -33
12 -57 12 -13 16 -23 9 -23 -8 0 -11 -11 -9 -27 2 -20 8 -27 21 -25 26 4 21
-23 -13 -61 -16 -19 -30 -39 -30 -45 0 -5 -13 -15 -30 -22 -38 -16 -38 -23 3
-43 20 -10 26 -16 15 -16 -14 -1 -18 -10 -18 -41 0 -34 3 -40 21 -40 11 0 18
-4 15 -8 -3 -5 -6 -48 -7 -96 -1 -76 1 -90 20 -110 14 -15 21 -35 21 -63 0
-23 4 -43 10 -45 6 -2 7 -47 3 -120 l-6 -118 -34 0 c-32 0 -33 -1 -35 -42 -5
-113 -3 -135 15 -170 16 -32 18 -49 12 -113 -5 -54 -11 -75 -21 -75 -18 0 -18
-6 3 -41 12 -21 14 -32 7 -37 -28 -18 -41 -67 -33 -122 14 -98 12 -118 -13
-122 -16 -2 -24 -11 -26 -29 -2 -17 -11 -30 -25 -34 -21 -7 -21 -8 6 -12 24
-4 27 -8 27 -44 0 -28 -4 -39 -15 -39 -29 0 -74 -62 -75 -102 0 -65 -22 -139
-39 -136 -27 4 -41 -12 -41 -48 0 -26 -4 -34 -17 -34 -25 -1 -69 -70 -51 -81
9 -6 5 -11 -14 -18 -15 -6 -28 -21 -33 -38 -7 -27 -7 -28 -16 -5 -4 12 -11 22
-14 22 -14 0 -66 -32 -61 -37 3 -3 -10 -23 -29 -45 -19 -21 -35 -47 -35 -57 0
-11 -12 -29 -26 -40 -15 -12 -24 -21 -20 -21 3 0 -13 -19 -35 -41 -32 -32 -43
-38 -50 -28 -6 11 -11 11 -21 1 -6 -6 -22 -12 -35 -12 -20 0 -23 -5 -23 -40 0
-32 -4 -40 -18 -40 -11 0 -27 -9 -38 -21 -17 -19 -19 -19 -25 -2 -5 14 -8 10
-18 -19 -8 -25 -19 -37 -36 -41 -21 -3 -25 0 -25 19 0 13 -4 24 -8 24 -20 0
-29 -25 -24 -70 l5 -50 -67 0 c-36 0 -66 -4 -66 -8 0 -5 -18 -17 -39 -27 -39
-17 -39 -18 -36 -69 1 -28 0 -34 -2 -13 -2 20 -8 37 -14 37 -17 0 -68 -65 -69
-87 0 -20 -5 -23 -40 -23 -37 0 -40 -2 -40 -29 0 -34 -59 -101 -89 -101 -18 0
-21 -6 -21 -39 0 -45 -23 -75 -50 -66 -13 4 -25 -3 -41 -25 -18 -24 -30 -30
-60 -30 -25 0 -42 -6 -51 -18 -16 -23 -79 -46 -87 -33 -8 13 -81 -10 -81 -26
0 -6 -12 -14 -27 -17 -49 -9 -138 -20 -147 -17 -4 1 -28 2 -52 3 -24 0 -44 4
-44 9 0 15 -42 32 -49 21 -6 -11 -54 -32 -72 -32 -5 0 -9 8 -9 17 0 9 -7 25
-16 34 -14 15 -26 17 -76 12 -33 -3 -63 -2 -66 3 -9 12 -42 33 -63 40 -9 3
-22 23 -28 45 -10 34 -16 39 -41 39 -28 0 -30 2 -30 40 0 22 -4 40 -10 40 -13
0 -13 -46 0 -71 17 -31 -5 -23 -44 16 -20 19 -41 35 -48 35 -20 1 -58 36 -58
54 0 12 -10 16 -40 16 l-40 0 0 63 c-1 55 -4 66 -31 95 -16 18 -35 32 -42 31
-31 -4 -37 3 -37 41 0 22 -4 40 -10 40 -5 0 -10 16 -10 36 0 58 -14 74 -65 74
-38 0 -45 -3 -45 -20 0 -17 -7 -20 -43 -20 -37 0 -44 3 -56 31 -11 25 -18 30
-37 25 -21 -6 -24 -3 -24 23 0 21 6 32 20 36 17 5 29 25 16 25 -2 0 -11 3 -19
6 -10 3 -17 -1 -19 -13 -4 -15 -7 -13 -18 10 -16 34 -24 34 -38 2 -12 -25 -13
-25 -30 -8 -10 10 -26 30 -35 45 -11 18 -26 28 -42 28 -16 0 -25 6 -25 16 0
17 -64 84 -80 84 -5 0 -12 10 -16 22 -7 24 -54 78 -66 78 -5 0 -26 18 -48 40
-22 22 -44 40 -49 40 -5 0 -13 9 -16 20 -3 11 -13 20 -21 20 -15 0 -15 1 -19
39 -1 13 -16 36 -33 52 -21 20 -29 35 -25 49 4 15 -1 26 -17 37 -15 11 -18 18
-10 23 14 9 -16 75 -49 104 -23 21 -28 52 -8 59 8 3 6 10 -8 21 -19 15 -19 17
-2 30 21 16 22 26 2 26 -11 0 -15 11 -15 40 0 22 -3 40 -8 40 -4 0 -16 16 -27
36 -16 30 -17 37 -4 45 9 6 10 12 4 17 -6 4 -16 19 -24 35 -8 15 -20 27 -28
27 -7 0 -13 9 -13 19 0 11 -7 26 -15 35 -9 9 -15 33 -15 60 0 25 -4 46 -8 46
-5 0 -17 18 -28 40 -10 22 -25 40 -31 40 -9 0 -13 17 -13 49 0 41 4 51 20 56
25 8 26 22 3 29 -16 5 -18 18 -15 103 2 54 7 113 12 131 7 25 5 32 -6 32 -8 0
-14 7 -14 16 0 8 -6 22 -14 29 -15 15 -11 107 5 113 5 2 9 21 9 43 0 32 3 39
20 39 17 0 20 7 20 39 0 22 5 42 13 44 6 3 2 6 -10 6 -29 1 -31 31 -2 31 12 0
19 5 16 13 -2 6 -11 11 -19 9 -20 -3 -26 14 -20 61 5 42 14 47 29 15 10 -22
11 -22 19 -4 5 13 3 21 -4 24 -18 6 -15 81 3 88 8 4 15 16 15 28 0 12 5 27 12
34 9 9 9 12 0 12 -20 0 -13 28 13 55 14 14 36 25 48 25 17 0 29 14 51 56 17
32 32 51 36 44 8 -13 80 -3 80 11 0 5 18 9 40 9 22 0 40 -4 40 -9 0 -6 20 -1
45 10 25 11 64 22 88 23 42 4 97 11 172 22 63 9 100 12 258 19 82 3 160 10
173 15 14 6 50 10 81 10 45 0 54 3 49 15 -6 16 16 20 84 17 40 -2 66 10 56 27
-9 14 -73 15 -81 1 -3 -5 -15 -10 -26 -10 -10 0 -28 -5 -39 -12 -15 -9 -24 -9
-43 1 -13 7 -35 11 -48 9 -21 -3 -24 0 -21 26 2 17 15 41 29 54 21 19 24 28
16 40 -12 21 -127 28 -188 13 -22 -6 -98 -13 -167 -16 -70 -3 -150 -10 -179
-15 -28 -5 -62 -7 -75 -4 -15 4 -24 2 -24 -5 0 -6 -15 -11 -34 -11 -19 0 -38
-4 -41 -10 -3 -5 -16 -10 -29 -10 -12 0 -28 -6 -34 -12 -10 -10 -15 -10 -22 2
-9 13 -10 13 -10 -1 0 -15 -80 -40 -127 -40 -13 1 -23 -4 -23 -10 0 -20 -40
-47 -60 -42 -11 3 -20 9 -20 14 0 5 -6 9 -14 9 -20 0 -94 72 -78 77 7 3 12 21
12 43 0 21 4 40 8 42 18 7 55 82 54 109 0 16 4 29 9 29 5 0 9 9 9 20 0 14 12
25 39 36 30 12 40 23 50 53 6 21 11 46 11 55 0 9 8 16 18 16 23 0 82 48 82 66
0 8 9 14 20 14 11 0 20 5 20 10 0 6 4 10 10 10 5 0 33 14 61 32 28 17 65 31
81 31 16 0 24 3 18 7 -14 9 22 20 63 20 15 0 40 6 55 13 16 8 55 13 92 12 36
-1 90 4 120 11 30 7 57 9 60 6 3 -4 21 -8 40 -8 114 -5 151 -12 186 -39 45
-34 69 -25 69 26 0 32 2 34 35 37 78 5 102 13 96 29 -4 8 -2 21 4 28 8 9 3 16
-19 24 -16 7 -41 26 -57 42 -15 16 -36 29 -46 29 -11 0 -31 6 -46 14 -15 7
-72 17 -127 21 -86 7 -113 9 -157 14 -5 1 -8 8 -8 16 0 8 -7 15 -16 15 -9 0
-27 10 -39 23 -13 12 -34 30 -49 40 -22 15 -26 25 -26 66 l0 49 -80 7 c-44 4
-80 11 -80 16 0 5 -18 9 -40 9 -29 0 -40 4 -40 15 0 8 -9 15 -20 15 -11 0 -20
6 -20 13 0 21 17 40 29 33 17 -11 14 63 -4 80 -19 20 -19 34 0 34 8 0 15 -4
15 -9 0 -5 11 -4 25 2 l24 12 -22 5 c-35 9 -33 73 4 110 24 23 29 37 29 74 0
53 -14 61 -24 14 l-7 -33 -24 30 c-23 28 -23 30 -6 37 10 3 21 14 25 23 5 14
9 15 21 5 13 -11 16 -7 21 20 4 19 10 27 14 20 5 -9 9 -9 14 -1 4 6 20 11 37
11 25 0 29 4 29 28 0 15 5 33 12 40 9 9 7 12 -10 12 -12 0 -22 5 -22 10 0 6 5
10 10 10 6 0 10 7 10 15 0 11 11 15 40 15 36 0 40 3 40 25 0 22 4 25 39 25 22
0 42 -5 44 -12 3 -7 6 6 6 30 1 44 21 60 21 16 0 -34 16 -22 24 18 9 47 31 75
73 93 106 47 145 68 168 91 l25 25 -22 19 -23 19 39 1 c23 0 47 7 58 17 13 12
33 16 65 14 28 -2 61 4 84 15 37 16 39 19 39 66 l0 48 40 0 c28 0 40 -4 40
-14 0 -15 88 -28 96 -14 3 5 18 8 35 8 16 0 29 5 29 10 0 6 5 10 10 10 6 0 10
-7 10 -15 0 -8 6 -15 14 -15 18 0 29 27 13 34 -7 2 2 5 20 5 54 2 47 20 -9 23
-56 3 -73 23 -47 54 13 16 35 13 32 -5z m37 9 c0 -5 -5 -10 -11 -10 -5 0 -7 5
-4 10 3 6 8 10 11 10 2 0 4 -4 4 -10z m-320 -50 c0 -5 -4 -10 -10 -10 -5 0
-10 5 -10 10 0 6 5 10 10 10 6 0 10 -4 10 -10z m1400 -186 c0 -8 -7 -14 -15
-14 -15 0 -21 21 -9 33 10 9 24 -2 24 -19z m30 6 c0 -5 -2 -10 -4 -10 -3 0 -8
5 -11 10 -3 6 -1 10 4 10 6 0 11 -4 11 -10z m410 -316 c0 -9 -5 -14 -12 -12
-18 6 -21 28 -4 28 9 0 16 -7 16 -16z m-2665 -174 c3 -5 1 -10 -4 -10 -6 0
-11 5 -11 10 0 6 2 10 4 10 3 0 8 -4 11 -10z m-270 -80 c3 -5 1 -10 -4 -10 -6
0 -11 5 -11 10 0 6 2 10 4 10 3 0 8 -4 11 -10z m3360 -370 c0 -7 -6 -15 -12
-17 -8 -3 -13 4 -13 17 0 13 5 20 13 18 6 -3 12 -11 12 -18z m0 -290 c-3 -5
-10 -10 -16 -10 -5 0 -9 5 -9 10 0 6 7 10 16 10 8 0 12 -4 9 -10z m-889 -235
c-4 -24 -16 -30 -16 -7 0 12 4 22 9 22 5 0 8 -7 7 -15z m1197 -575 c-3 -11 -7
-20 -9 -20 -2 0 -4 9 -4 20 0 11 4 20 9 20 5 0 7 -9 4 -20z m-3723 -250 c0 -5
-4 -10 -9 -10 -6 0 -13 5 -16 10 -3 6 1 10 9 10 9 0 16 -4 16 -10z m-665 -327
c9 -47 9 -115 0 -169 -6 -38 8 -104 34 -153 14 -26 22 -291 10 -336 -24 -96
-39 -171 -34 -182 2 -7 0 -13 -5 -13 -5 0 -10 -12 -12 -27 -3 -26 -5 -27 -49
-25 -26 2 -50 -1 -54 -7 -4 -7 5 -11 22 -11 15 0 35 -4 43 -10 9 -6 17 -5 22
3 6 9 14 5 29 -12 16 -20 19 -33 13 -65 -3 -23 -12 -48 -20 -57 -8 -9 -11 -19
-8 -22 4 -4 1 -13 -6 -22 -10 -12 -9 -16 3 -21 9 -3 18 -12 21 -20 4 -10 -3
-14 -24 -14 -23 0 -30 5 -30 19 0 14 -5 18 -19 14 -14 -3 -21 2 -26 19 -15 47
-46 108 -55 108 -6 0 -10 22 -10 49 0 31 -5 53 -15 61 -8 7 -15 20 -15 29 0 9
-5 22 -11 28 -14 14 -13 356 1 361 6 2 10 23 10 47 0 26 6 47 15 55 20 17 20
90 1 90 -8 0 -16 10 -19 23 -3 21 -4 21 -15 -6 -7 -16 -12 -44 -12 -63 0 -22
-5 -34 -14 -34 -9 0 -15 -18 -19 -57 -4 -36 -12 -60 -21 -65 -9 -5 -16 -16
-16 -23 0 -27 -35 -16 -48 14 -7 17 -27 36 -43 43 -29 13 -30 15 -28 76 1 40
-2 67 -9 71 -17 11 -14 147 4 162 8 6 14 17 14 24 0 17 33 75 43 75 4 0 7 6 7
14 0 40 96 58 126 25 9 -10 21 -16 25 -13 5 3 9 -8 9 -25 0 -29 39 -81 60 -81
6 0 10 -6 10 -12 0 -9 3 -8 10 2 8 13 13 13 39 -3 38 -22 41 -22 41 6 0 13 5
28 11 34 8 8 7 17 -3 32 -15 24 -33 29 -24 6 7 -19 -11 -19 -44 0 l-25 14 29
1 c28 0 29 0 11 20 -17 19 -17 21 0 40 10 11 28 20 40 20 18 0 24 -7 30 -37z
m5241 -175 c32 -15 45 -51 60 -173 18 -146 18 -279 0 -294 -7 -6 -16 -42 -20
-80 -8 -76 -24 -143 -25 -103 -1 29 -17 28 -37 -3 -12 -18 -15 -39 -12 -69 3
-26 0 -53 -8 -67 -7 -13 -13 -34 -14 -46 0 -12 -11 -34 -24 -50 -13 -15 -26
-45 -30 -65 -4 -21 -11 -38 -16 -38 -5 0 -11 -9 -15 -19 -3 -11 -14 -22 -23
-24 -14 -4 -13 -6 6 -12 12 -4 22 -11 22 -15 0 -9 -39 -23 -57 -21 -8 1 -13
-11 -13 -34 0 -26 4 -35 17 -35 15 0 14 -2 -2 -20 -10 -11 -15 -28 -12 -39 3
-14 -1 -21 -17 -25 -35 -9 -86 -7 -86 4 0 13 -41 73 -53 78 -4 2 -3 10 3 17 8
10 6 15 -9 20 -21 6 -30 45 -11 45 6 0 10 9 10 20 0 31 22 70 39 70 13 0 13
-2 2 -9 -10 -7 -10 -10 -1 -16 7 -4 16 -2 20 5 5 9 19 10 44 6 33 -6 36 -5 36
17 0 22 -5 25 -57 30 -31 3 -62 12 -70 20 -8 7 -16 38 -18 67 -2 29 -8 57 -14
63 -6 6 -8 34 -4 69 4 40 2 58 -6 58 -6 0 -11 15 -11 33 0 17 -5 52 -11 77
-10 44 -2 96 22 142 5 10 9 24 9 32 0 8 6 21 13 28 24 25 47 67 47 86 0 10 9
28 20 40 11 12 20 26 20 32 0 5 6 10 13 10 29 0 68 26 74 50 3 14 9 27 12 30
3 3 15 22 25 43 11 20 23 37 28 37 4 0 8 6 8 13 0 37 66 45 126 15z m-5186
-1155 l0 -37 -22 21 c-18 18 -19 24 -8 37 20 25 30 19 30 -21z m4810 -175 c16
-10 24 -10 40 0 25 15 30 15 30 0 0 -7 14 -21 30 -30 27 -16 29 -19 18 -43 -6
-14 -19 -25 -30 -25 -10 0 -18 -7 -18 -15 0 -9 -8 -19 -17 -22 -15 -6 -15 -7
2 -13 10 -3 -23 -6 -73 -5 -50 0 -94 4 -98 8 -4 4 -1 7 6 7 9 0 8 6 -5 20 -11
13 -15 25 -10 37 5 10 9 21 9 25 1 4 7 13 14 20 6 6 12 18 12 24 0 7 15 15 33
17 17 2 33 5 35 5 1 1 11 -4 22 -10z m-2936 -1357 c3 -5 -1 -12 -10 -15 -22
-9 -24 -8 -24 9 0 16 25 21 34 6z m2581 -851 c3 -5 -1 -10 -9 -10 -9 0 -16 5
-16 10 0 6 4 10 9 10 6 0 13 -4 16 -10z m-1949 -195 c4 -15 16 -28 30 -31 41
-10 26 -24 -26 -24 -44 0 -54 -4 -80 -32 l-29 -33 -1 41 c0 36 3 43 24 48 14
3 26 16 30 31 4 16 13 25 26 25 13 0 22 -9 26 -25z m-194 -35 c7 -11 23 -20
35 -20 20 0 23 -5 23 -40 0 -28 -4 -40 -14 -40 -8 0 -18 -10 -21 -21 -5 -14
-10 -17 -14 -10 -5 8 -13 7 -27 -4 -21 -16 -54 -20 -54 -7 0 5 9 18 20 30 21
23 26 57 10 67 -11 7 -14 48 -3 58 12 13 33 7 45 -13z m-77 -30 c-3 -5 -13
-10 -21 -10 -8 0 -14 5 -14 10 0 6 9 10 21 10 11 0 17 -4 14 -10z m2165 -30
c0 -5 -4 -10 -10 -10 -5 0 -10 5 -10 10 0 6 5 10 10 10 6 0 10 -4 10 -10z
m1007 -32 c-3 -8 -6 -5 -6 6 -1 11 2 17 5 13 3 -3 4 -12 1 -19z m-3172 2 c3
-5 -3 -10 -14 -10 -12 0 -21 5 -21 10 0 6 6 10 14 10 8 0 18 -4 21 -10z m1112
-6 c-3 -3 -12 -4 -19 -1 -8 3 -5 6 6 6 11 1 17 -2 13 -5z m-3361 -25 c9 -16
-12 -33 -31 -25 -14 5 -15 9 -5 21 15 18 26 19 36 4z m4284 1 c0 -5 -5 -10
-11 -10 -5 0 -7 5 -4 10 3 6 8 10 11 10 2 0 4 -4 4 -10z m-830 -30 c0 -5 -2
-10 -4 -10 -3 0 -8 5 -11 10 -3 6 -1 10 4 10 6 0 11 -4 11 -10z m-3580 -7 c-8
-3 -18 -11 -22 -17 -4 -6 -10 -7 -15 -3 -9 10 16 27 37 26 13 -1 13 -1 0 -6z
m3444 -42 c3 -5 -1 -11 -9 -15 -9 -3 -15 0 -15 9 0 16 16 20 24 6z m-539 -21
c3 -5 1 -10 -4 -10 -6 0 -11 5 -11 10 0 6 2 10 4 10 3 0 8 -4 11 -10z m2875 0
c0 -5 -4 -10 -9 -10 -6 0 -13 5 -16 10 -3 6 1 10 9 10 9 0 16 -4 16 -10z
m-3450 -10 c0 -5 -5 -10 -11 -10 -5 0 -7 5 -4 10 3 6 8 10 11 10 2 0 4 -4 4
-10z m454 -5 c-4 -10 -20 -15 -45 -15 -28 0 -39 4 -39 15 0 11 12 15 45 15 35
0 43 -3 39 -15z m76 -5 c0 -11 5 -20 11 -20 5 0 8 -4 4 -9 -3 -6 3 -14 12 -20
25 -13 9 -25 -16 -12 -16 9 -22 8 -29 -5 -8 -14 -12 -13 -36 11 -33 33 -22 56
17 38 19 -9 24 -8 24 3 0 8 -6 14 -13 14 -7 0 -16 5 -19 10 -4 6 5 10 19 10
19 0 26 -5 26 -20z m683 -9 c-2 -6 2 -11 8 -11 5 0 7 -4 4 -10 -3 -5 -18 -10
-33 -9 -23 0 -24 2 -8 8 14 5 16 10 8 15 -7 4 -10 12 -6 17 8 13 30 5 27 -10z
m37 9 c0 -5 -5 -10 -11 -10 -5 0 -7 5 -4 10 3 6 8 10 11 10 2 0 4 -4 4 -10z
m-1447 -17 c-7 -2 -19 -2 -25 0 -7 3 -2 5 12 5 14 0 19 -2 13 -5z m347 3 c0
-11 -19 -15 -25 -6 -3 5 1 10 9 10 9 0 16 -2 16 -4z m285 -17 c-6 -9 -77 -31
-83 -24 -2 2 -1 12 2 22 5 15 14 18 46 15 22 -2 38 -8 35 -13z m-680 1 c-3 -5
-10 -10 -16 -10 -5 0 -9 5 -9 10 0 6 7 10 16 10 8 0 12 -4 9 -10z m305 -5 c9
-10 9 -15 1 -15 -6 0 -11 5 -11 10 0 6 -5 10 -11 10 -6 0 -9 -7 -5 -15 3 -9 0
-15 -9 -15 -17 0 -17 2 -9 24 8 20 28 21 44 1z m1300 0 c0 -8 -2 -15 -4 -15
-2 0 -6 7 -10 15 -3 8 -1 15 4 15 6 0 10 -7 10 -15z m-1457 -16 l22 -22 -26 7
c-19 4 -29 1 -33 -10 -3 -8 -10 -12 -16 -9 -6 4 -4 15 6 31 20 29 19 29 47 3z
m83 8 c4 -4 2 -7 -4 -7 -5 0 -17 -3 -26 -6 -10 -4 -16 -1 -16 8 0 15 33 18 46
5z m216 -7 c-12 -11 -19 -27 -16 -35 4 -10 0 -15 -11 -15 -25 0 -15 42 15 57
35 18 37 16 12 -7z m129 7 c-1 -12 -15 -9 -19 4 -3 6 1 10 8 8 6 -3 11 -8 11
-12z m309 3 c0 -13 -20 -13 -40 0 -12 8 -9 10 13 10 15 0 27 -4 27 -10z m-520
-30 c-19 -13 -30 -13 -30 0 0 6 10 10 23 10 18 0 19 -2 7 -10z m140 0 c0 -5
-2 -10 -4 -10 -3 0 -8 5 -11 10 -3 6 -1 10 4 10 6 0 11 -4 11 -10z m940 0 c0
-5 -7 -10 -15 -10 -8 0 -15 5 -15 10 0 6 7 10 15 10 8 0 15 -4 15 -10z m-2143
-22 c-3 -8 -6 -5 -6 6 -1 11 2 17 5 13 3 -3 4 -12 1 -19z m888 2 c3 -5 1 -10
-4 -10 -6 0 -11 5 -11 10 0 6 2 10 4 10 3 0 8 -4 11 -10z m82 -6 c-3 -3 -12
-4 -19 -1 -8 3 -5 6 6 6 11 1 17 -2 13 -5z m656 -15 c-6 -6 -17 -8 -24 -3 -9
5 -8 9 7 14 23 9 31 3 17 -11z m-1636 -5 c2 -6 -5 -14 -17 -17 -15 -4 -20 0
-20 15 0 21 30 23 37 2z m43 -4 c0 -5 -7 -10 -16 -10 -8 0 -12 5 -9 10 3 6 10
10 16 10 5 0 9 -4 9 -10z m1840 1 c0 -5 -7 -14 -15 -21 -13 -10 -15 -9 -15 9
0 12 6 21 15 21 8 0 15 -4 15 -9z m-1995 -11 c3 -5 2 -10 -4 -10 -5 0 -13 5
-16 10 -3 6 -2 10 4 10 5 0 13 -4 16 -10z"/>
<path d="M3520 7080 c0 -15 5 -20 18 -18 9 2 17 10 17 18 0 8 -8 16 -17 18
-13 2 -18 -3 -18 -18z"/>
<path d="M3630 7063 c-64 -5 -94 -23 -37 -23 20 0 53 -8 72 -17 33 -16 39 -16
63 -2 15 8 28 22 30 32 4 18 1 18 -128 10z"/>
<path d="M4138 6953 c7 -3 16 -2 19 1 4 3 -2 6 -13 5 -11 0 -14 -3 -6 -6z"/>
<path d="M4225 6950 c3 -5 8 -10 11 -10 2 0 4 5 4 10 0 6 -5 10 -11 10 -5 0
-7 -4 -4 -10z"/>
<path d="M2117 6233 c-12 -11 -8 -23 8 -23 8 0 15 7 15 15 0 16 -12 20 -23 8z"/>
<path d="M4400 4930 c0 -5 -6 -10 -12 -10 -7 0 -24 -9 -37 -19 l-24 -19 30
-15 c31 -17 42 -33 49 -77 4 -23 1 -25 -32 -25 -21 0 -39 -6 -41 -12 -3 -9 5
-13 24 -13 16 0 34 -5 40 -11 7 -7 61 -13 140 -15 74 -1 149 -9 178 -17 28 -8
79 -15 115 -16 69 -1 136 -19 202 -52 10 -5 32 -9 49 -9 17 0 38 -7 46 -16 13
-12 29 -14 77 -9 34 4 69 9 79 11 9 3 17 1 17 -5 0 -6 -4 -11 -10 -11 -5 0
-10 -5 -10 -11 0 -6 24 -10 65 -8 36 1 68 -1 72 -4 3 -4 -15 -7 -41 -7 -29 0
-45 -4 -41 -10 10 -16 94 -12 111 5 9 8 11 15 5 15 -6 0 -11 6 -11 14 0 8 -7
12 -17 10 -33 -7 -83 51 -83 98 0 14 -9 27 -23 34 -12 6 -38 19 -57 29 -58 30
-69 35 -84 35 -8 0 -37 11 -65 25 -32 17 -59 23 -74 20 -19 -5 -25 -2 -30 14
-4 16 -16 21 -66 27 -34 3 -61 10 -61 14 0 12 -64 21 -173 26 -54 2 -103 6
-107 9 -18 11 -200 16 -200 5z"/>
<path d="M4155 4820 c-17 -19 -17 -20 -1 -20 9 0 14 -5 11 -10 -4 -6 -12 -9
-19 -8 -6 2 -14 -1 -16 -7 -7 -13 63 -30 86 -21 18 7 18 9 -5 27 -13 10 -18
19 -12 19 6 0 11 9 11 20 0 13 -7 20 -18 20 -11 0 -27 -9 -37 -20z"/>
<path d="M1695 4810 c-3 -5 3 -10 15 -10 12 0 18 5 15 10 -3 6 -10 10 -15 10
-5 0 -12 -4 -15 -10z"/>
<path d="M3233 4763 c-29 -14 -33 -22 -33 -55 0 -24 -5 -38 -13 -38 -22 0 -47
-39 -47 -75 0 -19 -4 -35 -10 -35 -14 0 -12 -43 3 -59 10 -11 10 -14 0 -18 -7
-3 -13 -11 -13 -18 0 -8 -11 -25 -25 -39 -18 -19 -25 -36 -25 -66 0 -28 -4
-40 -14 -40 -8 0 -17 -6 -19 -12 -3 -7 -3 2 0 21 8 43 -13 34 -33 -15 -19 -46
-18 -74 4 -75 13 0 12 -3 -5 -11 -13 -6 -23 -16 -23 -22 1 -16 25 -46 38 -46
7 0 14 -11 18 -25 7 -27 24 -34 24 -10 0 8 -4 15 -10 15 -5 0 -10 5 -10 10 0
6 20 10 45 10 43 0 46 2 61 40 11 27 22 40 35 40 15 0 19 8 20 38 2 58 -2 76
-19 95 -17 20 -18 88 -1 119 12 22 49 24 49 3 0 -10 10 -15 34 -15 30 0 33 3
29 21 -4 12 -14 24 -25 26 -22 6 -24 33 -3 33 8 0 15 6 15 14 0 7 9 16 20 19
11 3 20 10 20 16 0 6 -9 15 -20 21 -17 9 -20 21 -20 80 0 39 -3 70 -7 69 -5 0
-23 -8 -40 -16z"/>
<path d="M2935 4083 c-31 -46 -32 -57 -2 -41 12 7 26 11 30 10 16 -5 47 19 47
37 0 17 -18 31 -40 31 -5 0 -21 -17 -35 -37z"/>
<path d="M5540 3960 c0 -22 5 -40 10 -40 6 0 10 18 10 40 0 22 -4 40 -10 40
-5 0 -10 -18 -10 -40z"/>
<path d="M3020 3725 c-12 -15 -12 -19 3 -30 9 -7 17 -16 18 -21 0 -14 53 -52
80 -59 34 -8 114 34 114 60 0 47 -183 89 -215 50z"/>
<path d="M3760 3704 c-36 -7 -85 -31 -99 -48 -11 -13 -7 -18 24 -30 20 -9 58
-18 85 -22 43 -6 55 -3 97 22 26 16 54 27 61 26 17 -4 15 6 -7 29 -20 21 -106
33 -161 23z"/>
<path d="M2880 3010 c0 -28 -2 -30 -40 -30 -29 0 -40 4 -40 15 0 23 -82 19
-131 -6 -25 -12 -55 -19 -77 -17 -32 3 -42 -3 -73 -35 -60 -61 -87 -150 -54
-177 8 -7 15 -17 15 -22 0 -5 19 -28 43 -50 26 -26 37 -43 29 -46 -9 -3 -6
-13 13 -37 14 -19 25 -38 25 -43 0 -5 7 -15 16 -23 9 -7 13 -21 10 -33 -4 -16
3 -24 27 -36 26 -12 32 -21 30 -42 -1 -23 2 -28 23 -28 13 0 24 -4 24 -9 0 -5
9 -11 21 -14 16 -4 19 -11 14 -26 -5 -18 -2 -21 19 -21 16 0 26 6 26 15 0 19
90 21 108 3 8 -8 15 -8 26 1 8 7 20 10 26 6 21 -13 78 4 83 25 3 11 1 18 -3
15 -22 -14 -40 9 -40 52 0 47 -27 108 -72 162 -28 33 -42 36 -195 45 -40 2
-77 7 -82 11 -6 3 -11 30 -11 60 0 52 1 53 38 68 20 8 46 24 56 36 15 17 27
20 51 15 25 -4 36 -1 46 14 11 15 32 20 109 26 52 4 97 11 100 16 3 5 28 11
56 13 28 2 56 7 62 11 6 4 20 2 31 -4 25 -13 38 4 18 24 -11 11 -17 12 -26 3
-8 -8 -14 -8 -23 1 -7 7 -24 12 -40 12 -15 0 -37 4 -50 9 -82 32 -108 46 -108
58 0 9 -13 13 -40 13 -38 0 -40 -2 -40 -30z"/>
<path d="M2500 2970 c0 -5 5 -10 11 -10 5 0 7 5 4 10 -3 6 -8 10 -11 10 -2 0
-4 -4 -4 -10z"/>
<path d="M3260 2931 c0 -17 18 -21 24 -6 3 9 0 15 -9 15 -8 0 -15 -4 -15 -9z"/>
<path d="M4125 2928 c-21 -12 -230 -14 -266 -3 -11 4 -19 3 -19 -2 0 -11 37
-43 49 -43 5 0 14 -7 21 -15 8 -9 30 -15 57 -15 28 0 46 -5 49 -14 3 -8 25
-17 50 -21 24 -3 42 -10 40 -14 -6 -8 43 -25 106 -36 20 -4 39 -14 42 -22 5
-11 10 -12 19 -5 9 8 16 6 25 -9 18 -28 6 -58 -26 -64 -15 -3 -41 -10 -58 -15
-19 -6 -49 -7 -77 -1 -26 5 -67 6 -92 3 -39 -4 -43 -7 -35 -23 14 -26 12 -42
-4 -36 -18 7 -26 -13 -26 -62 0 -21 -7 -59 -16 -86 -16 -46 -16 -49 1 -62 24
-17 35 -17 35 2 0 19 10 19 46 0 17 -9 30 -11 32 -5 2 6 21 10 41 10 21 0 69
12 107 26 38 14 78 28 89 31 28 8 46 24 39 35 -3 5 1 17 9 26 8 9 22 33 30 52
8 19 41 63 72 97 32 34 64 79 71 99 11 33 10 42 -6 73 -26 50 -78 70 -192 72
-10 0 -18 6 -18 14 0 16 -86 25 -101 10 -7 -7 -13 -5 -19 4 -7 12 -11 12 -24
2 -11 -9 -16 -10 -16 -2 0 14 -10 14 -35 -1z"/>
<path d="M2706 2021 c-4 -7 -5 -15 -2 -18 9 -9 19 4 14 18 -4 11 -6 11 -12 0z"/>
<path d="M4071 1534 c0 -11 3 -14 6 -6 3 7 2 16 -1 19 -3 4 -6 -2 -5 -13z"/>
<path d="M3180 1430 c0 -5 9 -10 20 -10 11 0 20 5 20 10 0 6 -9 10 -20 10 -11
0 -20 -4 -20 -10z"/>
<path d="M981 4224 c0 -11 3 -14 6 -6 3 7 2 16 -1 19 -3 4 -6 -2 -5 -13z"/>
<path d="M6160 3170 c0 -5 7 -10 16 -10 8 0 12 5 9 10 -3 6 -10 10 -16 10 -5
0 -9 -4 -9 -10z"/>
<path d="M6132 2988 c-18 -18 -15 -28 8 -28 13 0 20 7 20 20 0 23 -10 26 -28
8z"/>
<path d="M6357 423 c-12 -11 -8 -23 8 -23 8 0 15 7 15 15 0 16 -12 20 -23 8z"/>
<path d="M6000 360 c0 -24 -5 -40 -12 -40 -6 0 -23 -10 -36 -22 -16 -15 -26
-19 -29 -11 -3 8 -12 9 -34 1 -16 -5 -36 -8 -43 -5 -8 3 -17 1 -19 -6 -3 -7
-8 0 -12 16 -4 16 -14 27 -24 26 -10 0 -11 -2 -3 -6 14 -6 16 -59 2 -68 -6 -4
-10 6 -10 22 l-1 28 -13 -25 c-14 -24 -13 -25 22 -42 45 -21 50 -21 82 -5 14
8 43 14 63 15 32 1 37 -1 33 -16 -3 -9 -8 -29 -12 -44 -7 -32 -31 -37 -36 -9
-5 32 -69 -2 -91 -50 -12 -25 -28 -41 -43 -45 -13 -3 -24 -13 -24 -21 0 -9 6
-13 15 -9 8 3 15 1 15 -4 0 -6 -8 -10 -17 -10 -13 -1 -10 -5 10 -16 30 -16 55
-10 38 10 -11 13 -4 56 9 56 11 0 21 -46 14 -64 -4 -11 0 -16 14 -16 11 0 22
6 25 13 4 10 7 10 18 0 18 -17 87 -16 105 1 7 8 22 12 33 9 11 -3 24 3 32 14
8 10 23 23 34 29 26 15 27 50 1 47 -11 -1 -25 5 -33 13 -8 8 -22 14 -32 14
-22 0 -71 23 -71 33 0 4 7 7 15 7 8 0 15 5 15 10 0 6 18 10 40 10 22 0 40 -4
40 -9 0 -5 9 -7 20 -4 11 3 20 12 20 19 0 8 9 14 20 14 23 0 26 22 6 39 -11 9
-20 7 -40 -14 l-26 -26 1 51 c1 27 6 50 10 50 5 0 9 9 9 19 0 20 -18 31 -51
31 -11 0 -22 7 -25 15 -11 28 -24 15 -24 -25z"/>
<path d="M5400 360 c0 -5 7 -10 15 -10 8 0 15 5 15 10 0 6 -7 10 -15 10 -8 0
-15 -4 -15 -10z"/>
<path d="M6553 335 c-8 -9 -9 -16 -3 -20 6 -3 13 1 16 10 9 21 2 26 -13 10z"/>
<path d="M5895 330 c-3 -5 1 -10 9 -10 9 0 16 5 16 10 0 6 -4 10 -9 10 -6 0
-13 -4 -16 -10z"/>
<path d="M5230 250 c-17 -32 5 -53 26 -25 8 10 13 24 11 29 -6 19 -26 17 -37
-4z"/>
<path d="M936 225 c4 -8 8 -15 10 -15 2 0 4 7 4 15 0 8 -4 15 -10 15 -5 0 -7
-7 -4 -15z"/>
<path d="M6366 224 c-3 -9 -4 -20 0 -25 7 -12 34 -12 34 0 0 5 3 16 6 25 4 11
0 16 -14 16 -11 0 -23 -7 -26 -16z"/>
<path d="M6320 210 c0 -5 5 -10 10 -10 6 0 10 5 10 10 0 6 -4 10 -10 10 -5 0
-10 -4 -10 -10z"/>
<path d="M5192 190 c0 -14 2 -19 5 -12 2 6 2 18 0 25 -3 6 -5 1 -5 -13z"/>
<path d="M6080 155 c0 -8 2 -15 4 -15 2 0 6 7 10 15 3 8 1 15 -4 15 -6 0 -10
-7 -10 -15z"/>
<path d="M5180 120 c0 -22 -4 -40 -10 -40 -5 0 -10 11 -10 24 0 29 -12 39 -34
30 -9 -4 -16 -17 -15 -33 0 -20 2 -22 7 -8 7 16 10 14 31 -13 30 -41 51 -26
49 36 -1 55 -18 59 -18 4z"/>
<path d="M5664 136 c-9 -37 10 -56 33 -33 16 16 16 18 -4 39 l-22 21 -7 -27z"/>
<path d="M6120 151 c0 -5 6 -16 13 -23 7 -7 16 -21 20 -30 9 -25 70 -25 65 0
-2 11 -14 18 -35 20 -21 2 -33 9 -36 23 -5 19 -27 27 -27 10z"/>
<path d="M5584 125 c-9 -22 5 -37 29 -29 30 9 32 11 17 29 -16 19 -39 19 -46
0z"/>
<path d="M5030 120 c0 -5 4 -10 9 -10 6 0 13 5 16 10 3 6 -1 10 -9 10 -9 0
-16 -4 -16 -10z"/>
<path d="M6525 103 c-22 -3 -43 -9 -46 -15 -4 -6 -13 -6 -26 3 -35 21 -52 6
-48 -43 1 -24 1 -37 -2 -30 -6 17 -38 15 -53 -3 -11 -13 7 -15 153 -15 105 0
175 4 192 12 30 13 34 28 5 21 -11 -3 -20 -1 -20 3 0 14 46 32 61 24 8 -4 25
-3 39 3 24 9 24 10 -15 19 -26 6 -41 5 -43 -2 -2 -5 -14 -7 -27 -4 -13 3 -32
1 -43 -5 -15 -8 -23 -6 -40 14 -12 14 -28 24 -34 23 -7 -1 -31 -3 -53 -5z
m-85 -74 c0 -5 -4 -9 -10 -9 -5 0 -10 7 -10 16 0 8 5 12 10 9 6 -3 10 -10 10
-16z"/>
<path d="M6841 59 c-11 -18 -10 -24 3 -37 13 -14 16 -14 21 -1 3 9 2 25 -2 37
l-8 22 -14 -21z"/>
<path d="M4710 60 c-11 -7 0 -10 38 -10 28 0 52 5 52 10 0 13 -70 13 -90 0z"/>
<path d="M6900 54 c-12 -13 -11 -17 1 -25 20 -13 35 -11 49 6 15 18 13 20 -16
29 -14 4 -26 1 -34 -10z"/>
<path d="M4840 43 c1 -12 29 -47 34 -42 2 2 6 13 8 24 2 14 -3 21 -19 23 -13
2 -23 0 -23 -5z"/>
<path d="M7094 35 c-16 -13 -17 -16 -4 -25 23 -15 30 -12 30 15 0 29 0 29 -26
10z"/>
<path d="M4480 15 c0 -10 10 -15 33 -15 l32 1 -25 14 c-32 18 -40 18 -40 0z"/>
</g>
</svg>
